<svg xmlns="http://www.w3.org/2000/svg" width="1600" height="543" viewBox="0 0 1600 543">
<g>
<path d="M 139.52 459.43 C135.87,460.41 79.15,460.05 78.53,459.04 C77.77,457.81 83.39,446.66 102.49,411.50 C105.69,405.60 110.72,396.08 126.21,366.62 C141.65,337.23 146.30,328.48 147.00,327.50 C147.70,326.52 153.01,316.44 166.51,290.50 C170.23,283.35 174.50,275.25 176.00,272.50 C177.51,269.75 182.91,259.40 188.00,249.50 C193.09,239.60 198.04,230.15 199.00,228.50 C201.02,225.02 208.29,211.17 220.00,188.50 C224.55,179.70 229.49,170.25 230.99,167.50 C232.48,164.75 237.10,155.98 241.25,148.00 C252.17,127.02 256.86,118.07 264.30,104.00 C277.55,78.96 279.07,75.89 281.21,75.36 C281.63,75.26 282.06,75.25 282.61,75.20 C285.37,74.93 286.06,75.44 288.73,79.70 C291.52,84.15 296.10,92.65 307.99,115.50 C315.98,130.83 323.25,144.45 324.02,145.50 C324.42,146.05 328.61,154.15 333.33,163.50 C338.05,172.85 346.46,189.05 352.03,199.50 C357.59,209.95 364.62,223.45 367.65,229.50 C370.68,235.55 375.06,244.10 377.37,248.50 C382.82,258.86 396.10,284.37 406.26,304.00 C422.11,334.62 427.33,344.68 433.52,356.50 C446.29,380.91 462.44,411.86 468.75,424.00 C472.32,430.88 477.70,441.14 480.70,446.81 C483.71,452.48 485.92,457.77 485.61,458.57 C485.13,459.81 480.29,459.99 452.82,459.76 L 420.58 459.50 L 417.38 453.80 C413.89,447.59 407.46,435.49 397.29,416.00 C387.88,397.95 380.28,383.63 375.33,374.63 C372.95,370.30 371.00,366.54 371.00,366.28 C371.00,366.02 370.07,364.50 368.93,362.90 L 366.86 360.00 L 304.43 360.00 C250.80,360.00 242.00,359.80 242.00,358.56 C242.00,357.77 247.40,346.96 254.00,334.54 C260.60,322.12 266.00,311.60 266.00,311.17 C266.00,310.73 266.92,309.39 268.04,308.19 C270.06,306.02 270.39,306.00 303.98,306.00 C323.85,306.00 338.12,305.61 338.46,305.07 C338.77,304.56 336.49,299.27 333.39,293.32 C330.28,287.37 325.04,277.33 321.73,271.00 C318.43,264.67 313.79,255.90 311.43,251.50 C304.22,238.11 294.24,219.06 288.73,208.22 C285.52,201.89 283.00,198.05 282.16,198.22 C280.70,198.52 279.52,200.47 270.51,217.50 C263.50,230.75 250.38,255.40 246.28,263.00 C244.65,266.02 238.68,277.27 233.02,288.00 C227.35,298.73 220.14,312.23 217.00,318.00 C213.85,323.77 209.13,332.55 206.51,337.50 C203.88,342.45 198.82,351.90 195.24,358.50 C191.67,365.10 187.05,373.65 184.98,377.50 C182.91,381.35 173.43,398.90 163.93,416.50 C154.42,434.10 145.49,450.84 144.09,453.69 C142.61,456.69 140.68,459.12 139.52,459.43 ZM 1128.95 408.34 C1115.16,409.32 1074.20,409.14 1073.56,408.09 C1072.99,407.18 1081.41,389.47 1109.49,332.50 C1117.90,315.45 1130.50,289.80 1137.51,275.50 C1144.51,261.20 1155.09,239.60 1161.01,227.50 C1166.94,215.40 1178.78,191.21 1187.33,173.75 C1200.29,147.26 1203.30,141.84 1205.50,141.00 C1208.41,139.90 1244.36,139.64 1252.90,140.67 L 1258.29 141.31 L 1265.02 155.41 C1268.72,163.16 1273.79,173.77 1276.27,179.00 C1278.76,184.23 1286.06,199.30 1292.51,212.50 C1298.95,225.70 1305.69,239.65 1307.50,243.50 C1309.30,247.35 1314.48,258.15 1319.01,267.50 C1323.54,276.85 1329.16,288.55 1331.50,293.50 C1333.84,298.45 1340.70,312.62 1346.73,325.00 C1352.76,337.38 1360.30,352.90 1363.47,359.50 C1366.64,366.10 1371.04,375.10 1373.23,379.50 C1379.41,391.86 1386.08,407.25 1385.51,407.83 C1384.71,408.62 1328.32,409.28 1324.37,408.54 C1320.94,407.90 1320.67,407.45 1309.18,384.19 L 1297.48 360.50 L 1249.49 360.00 C1218.32,359.68 1201.56,359.15 1201.67,358.50 C1201.82,357.69 1223.16,313.25 1225.93,308.00 C1226.59,306.74 1230.50,306.46 1249.86,306.23 C1262.59,306.08 1273.00,305.59 1273.00,305.13 C1273.00,304.11 1264.94,286.96 1252.26,261.00 C1247.02,250.27 1240.11,235.99 1236.92,229.25 C1233.72,222.51 1230.74,217.01 1230.30,217.03 C1229.86,217.04 1228.63,218.95 1227.57,221.28 C1226.52,223.60 1222.40,232.25 1218.44,240.50 C1214.47,248.75 1209.43,259.33 1207.23,264.00 C1205.03,268.67 1199.53,280.15 1195.01,289.50 C1190.48,298.85 1184.86,310.55 1182.50,315.50 C1172.76,335.94 1165.92,350.24 1159.75,363.00 C1156.16,370.42 1149.85,383.52 1145.71,392.09 L 1138.20 407.69 ZM 1021.42 408.39 C1019.62,409.08 970.42,409.01 967.75,408.31 C966.10,407.88 966.00,403.52 965.98,334.68 C965.98,294.43 965.62,260.95 965.19,260.28 C964.65,259.43 959.89,258.97 949.46,258.78 L 934.50 258.50 L 934.50 219.50 L 948.93 219.22 C957.49,219.06 963.90,218.50 964.68,217.85 C965.63,217.06 966.00,213.51 966.02,205.13 C966.04,191.16 967.83,181.95 972.38,172.53 C978.92,158.97 986.11,151.47 998.63,145.17 C1009.66,139.63 1018.31,138.00 1036.73,138.00 C1053.94,138.00 1060.65,138.94 1076.85,143.62 C1087.87,146.81 1094.00,149.84 1094.00,152.09 C1094.00,153.86 1089.08,167.40 1084.28,178.84 C1083.08,181.71 1082.58,183.41 1081.46,184.15 C1079.95,185.13 1077.31,184.40 1070.33,182.46 C1069.35,182.19 1068.29,181.89 1067.14,181.57 C1053.80,177.91 1043.18,177.98 1035.88,181.79 C1029.89,184.92 1025.73,190.17 1024.07,196.69 C1022.92,201.21 1022.61,214.83 1023.61,217.42 C1024.14,218.81 1027.85,219.00 1055.05,219.00 C1072.01,219.00 1086.08,219.34 1086.31,219.75 C1086.55,220.16 1083.95,229.05 1080.54,239.50 L 1074.33 258.50 L 1048.92 259.04 C1034.94,259.34 1023.39,259.68 1023.25,259.79 C1023.11,259.91 1023.00,293.25 1023.00,333.89 C1023.00,400.35 1022.84,407.85 1021.42,408.39 ZM 808.00 408.54 C796.47,410.96 769.03,411.47 760.01,409.43 C745.50,406.15 732.80,397.62 726.56,386.96 C719.24,374.48 719.57,377.60 719.01,315.50 L 718.50 259.50 L 688.50 258.50 L 688.23 239.34 L 687.96 220.19 L 702.40 219.84 C710.34,219.65 717.21,219.13 717.67,218.67 C718.13,218.21 718.64,209.12 718.81,198.47 C718.84,196.40 718.86,194.55 718.88,192.89 C718.96,184.29 718.99,180.77 720.77,179.06 C722.34,177.55 725.28,177.45 730.83,176.49 C735.05,175.76 746.37,173.55 755.99,171.57 C765.61,169.59 774.04,168.18 774.72,168.45 C775.66,168.81 776.03,175.09 776.23,193.71 L 776.50 218.50 L 823.00 219.04 L 823.00 258.96 L 776.50 259.50 L 776.50 359.92 L 780.82 364.32 C787.27,370.88 795.26,372.49 808.38,369.85 C812.37,369.05 814.42,369.02 815.15,369.75 C815.73,370.33 816.92,378.28 817.80,387.41 C819.20,401.93 819.22,404.20 817.95,405.39 C817.15,406.14 812.67,407.56 808.00,408.54 ZM 1471.75 408.37 C1470.51,408.70 1457.25,408.98 1442.27,408.99 L 1415.04 409.00 L 1414.49 406.75 C1414.19,405.51 1414.07,345.10 1414.22,272.50 L 1414.50 140.50 L 1444.25 140.30 L 1474.00 140.11 L 1474.00 407.77 ZM 578.67 407.67 C577.76,408.58 524.27,409.25 522.25,408.38 C521.26,407.95 521.00,387.99 521.00,313.42 L 521.00 219.00 L 579.00 219.00 L 579.00 231.50 C579.00,239.35 579.38,244.00 580.02,244.00 C580.58,244.00 583.40,241.59 586.27,238.65 C591.71,233.09 601.67,225.32 606.00,223.27 C616.35,218.38 627.25,216.00 639.34,216.00 C646.98,216.00 662.86,218.18 665.03,219.52 C666.23,220.26 666.36,268.00 665.17,268.00 C664.71,268.00 660.10,266.59 654.92,264.87 C646.94,262.22 643.54,261.67 632.70,261.25 C618.28,260.70 610.67,261.81 602.16,265.70 C594.58,269.17 586.20,277.83 583.00,285.50 L 580.50 291.50 L 580.00 349.17 C579.72,380.88 579.13,407.21 578.67,407.67 ZM 910.80 407.80 C909.42,409.18 858.39,409.54 856.26,408.18 C855.29,407.56 855.16,387.64 855.68,313.70 L 856.33 220.00 L 912.00 220.00 L 912.00 313.30 C912.00,384.53 911.72,406.88 910.80,407.80 ZM 894.02 192.25 C885.03,195.73 873.90,193.77 864.87,187.14 C850.00,176.20 849.05,154.64 862.86,141.41 C869.89,134.67 872.87,133.61 884.54,133.69 C895.97,133.76 899.76,135.13 906.37,141.57 C912.20,147.23 914.98,154.02 914.99,162.60 C915.00,171.24 913.81,175.04 909.11,181.32 C905.20,186.53 901.09,189.51 894.02,192.25 Z" fill="rgb(1,1,1)"/>
<path d="M 910.80 407.80 C911.72,406.88 912.00,384.53 912.00,313.30 L 912.00 220.00 L 856.33 220.00 L 855.68 313.70 C855.16,387.64 855.29,407.56 856.26,408.18 C856.28,408.20 856.31,408.21 856.33,408.22 C856.29,408.21 856.25,408.19 856.23,408.18 C855.22,407.52 854.91,388.01 854.73,312.93 L 854.50 218.50 L 882.93 218.00 C905.68,217.60 911.62,217.76 912.68,218.82 C913.75,219.90 914.00,237.30 913.99,312.32 C913.98,363.02 913.71,405.49 913.38,406.69 C912.84,408.71 912.75,408.87 891.11,408.93 C901.47,408.75 910.24,408.36 910.80,407.80 ZM 717.92 217.61 C717.84,218.22 717.75,218.59 717.67,218.67 C717.21,219.13 710.34,219.65 702.40,219.84 L 688.04 220.19 C688.12,218.79 688.24,217.96 688.37,217.87 C689.50,217.05 711.68,217.53 715.11,218.45 C716.47,218.81 717.35,218.84 717.92,217.61 ZM 871.66 135.10 C872.41,134.75 873.09,134.51 873.66,134.40 C875.42,134.07 877.10,133.17 877.40,132.40 C878.16,130.42 888.35,130.49 890.36,132.50 C891.18,133.32 892.58,134.00 893.47,134.00 C894.56,134.00 896.21,134.59 898.06,135.55 C894.68,134.14 890.74,133.72 884.54,133.69 C878.52,133.65 874.81,133.91 871.66,135.10 ZM 817.23 406.81 C816.27,406.85 814.13,407.19 811.71,407.66 C814.84,406.84 817.37,405.94 817.95,405.39 C819.22,404.20 819.20,401.93 817.80,387.41 C817.08,379.88 816.14,373.16 815.51,370.70 C816.09,372.78 816.89,377.69 817.50,383.11 C818.27,389.92 819.35,397.30 819.91,399.50 C821.27,404.78 820.57,406.67 817.23,406.81 ZM 1056.75 139.00 C1061.60,139.46 1064.91,140.25 1070.50,141.80 C1076.55,143.48 1083.37,145.53 1085.66,146.35 C1087.95,147.17 1090.07,147.60 1090.38,147.29 C1091.18,146.48 1096.00,149.83 1096.00,151.19 C1096.00,151.83 1095.38,153.05 1094.63,153.92 C1094.05,154.59 1092.60,157.69 1091.08,161.46 C1092.83,156.61 1094.00,152.95 1094.00,152.09 C1094.00,149.84 1087.87,146.81 1076.85,143.62 C1068.56,141.23 1062.75,139.81 1056.75,139.00 ZM 891.50 193.25 C887.65,194.76 884.05,195.93 883.50,195.86 C879.97,195.39 878.00,194.76 878.00,194.09 C878.00,193.66 876.29,192.81 874.21,192.18 C872.53,191.68 870.58,190.74 868.61,189.56 C876.68,194.10 885.85,195.22 893.54,192.43 C892.89,192.70 892.21,192.97 891.50,193.25 ZM 687.98 221.52 L 688.23 239.34 L 688.50 258.50 L 688.00 238.50 C687.83,231.55 687.83,225.28 687.98,221.52 ZM 853.12 165.35 C852.70,158.85 854.37,152.30 858.13,146.76 C859.08,145.37 860.40,143.86 861.89,142.38 C855.60,148.92 852.71,157.28 853.12,165.35 ZM 1013.96 139.69 C1019.04,138.41 1022.10,138.02 1030.31,138.08 C1023.78,138.26 1018.60,138.74 1013.96,139.69 ZM 723.48 177.75 C722.29,178.06 721.42,178.44 720.77,179.06 C719.45,180.34 719.09,182.61 718.96,187.22 C719.00,182.70 719.27,180.44 720.53,179.16 C721.20,178.48 722.15,178.08 723.48,177.75 ZM 988.97 151.07 C992.68,148.18 996.84,145.78 1001.55,143.77 C1000.59,144.21 999.62,144.68 998.63,145.17 C995.00,147.00 991.82,148.92 988.97,151.07 ZM 1085.58 175.70 C1084.92,177.38 1084.33,178.83 1083.91,179.84 C1082.95,182.11 1082.52,183.52 1081.58,184.18 C1080.82,184.70 1079.73,184.75 1077.78,184.37 C1079.60,184.71 1080.68,184.66 1081.46,184.15 C1082.58,183.41 1083.08,181.71 1084.28,178.84 C1084.72,177.81 1085.15,176.76 1085.58,175.70 ZM 860.00 182.63 C859.37,181.94 858.82,181.25 858.37,180.60 C858.15,180.27 857.94,179.95 857.73,179.62 C858.41,180.66 859.17,181.67 860.00,182.63 ZM 903.96 186.78 C905.84,185.25 907.49,183.48 909.11,181.32 C907.45,183.53 905.87,185.26 903.96,186.78 ZM 762.17 409.82 C761.36,409.71 760.63,409.58 760.01,409.44 C756.38,408.61 752.86,407.46 749.53,406.03 C752.86,407.46 756.38,408.61 760.01,409.43 C760.64,409.57 761.37,409.70 762.17,409.82 ZM 815.12 369.72 C814.94,369.55 814.68,369.43 814.34,369.34 C814.69,369.42 814.94,369.54 815.11,369.71 C815.11,369.71 815.12,369.72 815.12,369.72 Z" fill="rgb(188,188,188)"/>
<path d="M 0.00 271.50 L 0.00 0.00 L 800.00 0.00 L 1600.00 0.00 L 1600.00 271.50 L 1600.00 543.00 L 800.00 543.00 L 0.00 543.00 L 0.00 271.50 ZM 139.52 459.43 C140.68,459.12 142.61,456.69 144.09,453.69 C145.49,450.84 154.42,434.10 163.93,416.50 C173.43,398.90 182.91,381.35 184.98,377.50 C187.05,373.65 191.67,365.10 195.24,358.50 C198.82,351.90 203.88,342.45 206.51,337.50 C209.13,332.55 213.85,323.77 217.00,318.00 C220.14,312.23 227.35,298.73 233.02,288.00 C238.68,277.27 244.65,266.02 246.28,263.00 C250.38,255.40 263.50,230.75 270.51,217.50 C279.52,200.47 280.70,198.52 282.16,198.22 C283.00,198.05 285.52,201.89 288.73,208.22 C294.24,219.06 304.22,238.11 311.43,251.50 C313.79,255.90 318.43,264.67 321.73,271.00 C325.04,277.33 330.28,287.37 333.39,293.32 C336.49,299.27 338.77,304.56 338.46,305.07 C338.12,305.61 323.85,306.00 303.98,306.00 C270.39,306.00 270.06,306.02 268.04,308.19 C266.92,309.39 266.00,310.73 266.00,311.17 C266.00,311.60 260.60,322.12 254.00,334.54 C247.40,346.96 242.00,357.77 242.00,358.56 C242.00,359.80 250.80,360.00 304.43,360.00 L 366.86 360.00 L 368.93 362.90 C370.07,364.50 371.00,366.02 371.00,366.28 C371.00,366.54 372.95,370.30 375.33,374.63 C380.28,383.63 387.88,397.95 397.29,416.00 C407.46,435.49 413.89,447.59 417.38,453.80 L 420.58 459.50 L 452.82 459.76 C480.29,459.99 485.13,459.81 485.61,458.57 C485.92,457.77 483.71,452.48 480.70,446.81 C477.70,441.14 472.32,430.88 468.75,424.00 C462.44,411.86 446.29,380.91 433.52,356.50 C427.33,344.68 422.11,334.62 406.26,304.00 C396.10,284.37 382.82,258.86 377.37,248.50 C375.06,244.10 370.68,235.55 367.65,229.50 C364.62,223.45 357.59,209.95 352.03,199.50 C346.46,189.05 338.05,172.85 333.33,163.50 C328.61,154.15 324.42,146.05 324.02,145.50 C323.25,144.45 315.98,130.83 307.99,115.50 C296.10,92.65 291.52,84.15 288.73,79.70 C286.06,75.44 285.37,74.93 282.61,75.20 C279.22,75.53 280.10,74.13 264.30,104.00 C256.86,118.07 252.17,127.02 241.25,148.00 C237.10,155.98 232.48,164.75 230.99,167.50 C229.49,170.25 224.55,179.70 220.00,188.50 C208.29,211.17 201.02,225.02 199.00,228.50 C198.04,230.15 193.09,239.60 188.00,249.50 C182.91,259.40 177.51,269.75 176.00,272.50 C174.50,275.25 170.23,283.35 166.51,290.50 C153.01,316.44 147.70,326.52 147.00,327.50 C146.30,328.48 141.65,337.23 126.21,366.62 C110.72,396.08 105.69,405.60 102.49,411.50 C83.39,446.66 77.77,457.81 78.53,459.04 C79.15,460.05 135.87,460.41 139.52,459.43 ZM 807.50 408.57 C811.35,407.66 815.73,406.87 817.23,406.81 C820.57,406.67 821.27,404.78 819.91,399.50 C819.35,397.30 818.27,389.92 817.50,383.11 C816.74,376.29 815.66,370.26 815.11,369.71 C814.44,369.04 812.21,369.08 808.38,369.85 C795.26,372.49 787.27,370.88 780.82,364.32 L 776.50 359.92 L 776.50 309.71 L 776.50 259.50 L 799.75 259.23 L 823.00 258.96 L 823.00 239.00 L 823.00 219.04 L 799.75 218.77 L 776.50 218.50 L 776.23 193.71 C776.03,175.09 775.66,168.81 774.72,168.45 C774.04,168.18 765.61,169.59 755.99,171.57 C746.37,173.55 735.05,175.76 730.83,176.49 C717.69,178.76 719.00,176.50 718.99,196.82 C718.97,218.01 718.72,219.41 715.11,218.45 C711.68,217.53 689.50,217.05 688.37,217.87 C687.89,218.21 687.72,227.50 688.00,238.50 L 688.50 258.50 L 703.50 259.00 L 718.50 259.50 L 719.01 315.50 C719.57,377.60 719.24,374.48 726.56,386.96 C732.80,397.62 745.49,406.14 760.01,409.44 C768.74,411.42 797.60,410.89 807.50,408.57 ZM 578.67 407.67 C579.13,407.21 579.72,380.88 580.00,349.17 L 580.50 291.50 L 583.00 285.50 C586.20,277.83 594.58,269.17 602.16,265.70 C610.67,261.81 618.28,260.70 632.70,261.25 C643.54,261.67 646.94,262.22 654.92,264.87 C660.10,266.59 664.71,268.00 665.17,268.00 C666.36,268.00 666.23,220.26 665.03,219.52 C662.86,218.18 646.98,216.00 639.34,216.00 C627.25,216.00 616.35,218.38 606.00,223.27 C601.67,225.32 591.71,233.09 586.27,238.65 C583.40,241.59 580.58,244.00 580.02,244.00 C579.38,244.00 579.00,239.35 579.00,231.50 L 579.00 219.00 L 550.00 219.00 L 521.00 219.00 L 521.00 313.42 C521.00,387.99 521.26,407.95 522.25,408.38 C524.27,409.25 577.76,408.58 578.67,407.67 ZM 913.38 406.69 C913.71,405.49 913.98,363.02 913.99,312.32 C914.00,237.30 913.75,219.90 912.68,218.82 C911.62,217.76 905.68,217.60 882.93,218.00 L 854.50 218.50 L 854.73 312.93 C854.91,388.01 855.22,407.52 856.23,408.18 C856.93,408.63 869.94,408.97 885.15,408.94 C912.74,408.89 912.80,408.88 913.38,406.69 ZM 1021.42 408.39 C1022.84,407.85 1023.00,400.35 1023.00,333.89 C1023.00,293.25 1023.11,259.91 1023.25,259.79 C1023.39,259.68 1034.94,259.34 1048.92,259.04 L 1074.33 258.50 L 1080.54 239.50 C1083.95,229.05 1086.55,220.16 1086.31,219.75 C1086.08,219.34 1072.01,219.00 1055.05,219.00 C1027.85,219.00 1024.14,218.81 1023.61,217.42 C1022.61,214.83 1022.92,201.21 1024.07,196.69 C1025.73,190.17 1029.89,184.92 1035.88,181.79 C1043.18,177.98 1053.80,177.91 1067.14,181.57 C1082.60,185.82 1081.33,185.96 1083.91,179.84 C1085.14,176.90 1087.75,170.23 1089.70,165.00 C1091.66,159.77 1093.87,154.79 1094.63,153.92 C1095.38,153.05 1096.00,151.83 1096.00,151.19 C1096.00,149.83 1091.18,146.48 1090.38,147.29 C1090.07,147.60 1087.95,147.17 1085.66,146.35 C1083.37,145.53 1076.55,143.48 1070.50,141.80 C1060.48,139.02 1057.80,138.70 1040.39,138.27 C1023.18,137.84 1020.47,138.00 1013.05,139.93 C992.98,145.13 980.93,154.79 972.38,172.53 C967.83,181.95 966.04,191.16 966.02,205.13 C966.00,213.51 965.63,217.06 964.68,217.85 C963.90,218.50 957.49,219.06 948.93,219.22 L 934.50 219.50 L 934.50 239.00 L 934.50 258.50 L 949.46 258.78 C959.89,258.97 964.65,259.43 965.19,260.28 C965.62,260.95 965.98,294.43 965.98,334.68 C966.00,403.52 966.10,407.88 967.75,408.31 C970.42,409.01 1019.62,409.08 1021.42,408.39 ZM 1128.95 408.34 L 1138.20 407.69 L 1145.71 392.09 C1149.85,383.52 1156.16,370.42 1159.75,363.00 C1165.92,350.24 1172.76,335.94 1182.50,315.50 C1184.86,310.55 1190.48,298.85 1195.01,289.50 C1199.53,280.15 1205.03,268.67 1207.23,264.00 C1209.43,259.33 1214.47,248.75 1218.44,240.50 C1222.40,232.25 1226.52,223.60 1227.57,221.28 C1228.63,218.95 1229.86,217.04 1230.30,217.03 C1230.74,217.01 1233.72,222.51 1236.92,229.25 C1240.11,235.99 1247.02,250.27 1252.26,261.00 C1264.94,286.96 1273.00,304.11 1273.00,305.13 C1273.00,305.59 1262.59,306.08 1249.86,306.23 C1230.50,306.46 1226.59,306.74 1225.93,308.00 C1223.16,313.25 1201.82,357.69 1201.67,358.50 C1201.56,359.15 1218.32,359.68 1249.49,360.00 L 1297.48 360.50 L 1309.18 384.19 C1320.67,407.45 1320.94,407.90 1324.37,408.54 C1328.32,409.28 1384.71,408.62 1385.51,407.83 C1386.08,407.25 1379.41,391.86 1373.23,379.50 C1371.04,375.10 1366.64,366.10 1363.47,359.50 C1360.30,352.90 1352.76,337.38 1346.73,325.00 C1340.70,312.62 1333.84,298.45 1331.50,293.50 C1329.16,288.55 1323.54,276.85 1319.01,267.50 C1314.48,258.15 1309.30,247.35 1307.50,243.50 C1305.69,239.65 1298.95,225.70 1292.51,212.50 C1286.06,199.30 1278.76,184.23 1276.27,179.00 C1273.79,173.77 1268.72,163.16 1265.02,155.41 L 1258.29 141.31 L 1252.90 140.67 C1244.36,139.64 1208.41,139.90 1205.50,141.00 C1203.30,141.84 1200.29,147.26 1187.33,173.75 C1178.78,191.21 1166.94,215.40 1161.01,227.50 C1155.09,239.60 1144.51,261.20 1137.51,275.50 C1130.50,289.80 1117.90,315.45 1109.49,332.50 C1081.41,389.47 1072.99,407.18 1073.56,408.09 C1074.20,409.14 1115.16,409.32 1128.95,408.34 ZM 1471.75 408.37 L 1474.00 407.77 L 1474.00 273.94 L 1474.00 140.11 L 1444.25 140.30 L 1414.50 140.50 L 1414.22 272.50 C1414.07,345.10 1414.19,405.51 1414.49,406.75 L 1415.04 409.00 L 1442.27 408.99 C1457.25,408.98 1470.51,408.70 1471.75,408.37 ZM 891.50 193.25 C901.18,189.45 904.92,186.92 909.11,181.32 C913.81,175.04 915.00,171.24 914.99,162.60 C914.98,154.02 912.20,147.23 906.37,141.57 C902.28,137.59 896.17,134.00 893.47,134.00 C892.58,134.00 891.18,133.32 890.36,132.50 C888.35,130.49 878.16,130.42 877.40,132.40 C877.10,133.17 875.42,134.07 873.66,134.40 C869.86,135.12 861.55,141.73 858.13,146.76 C851.28,156.84 851.37,170.30 858.37,180.60 C861.38,185.03 869.05,190.63 874.21,192.18 C876.29,192.81 878.00,193.66 878.00,194.09 C878.00,194.76 879.97,195.39 883.50,195.86 C884.05,195.93 887.65,194.76 891.50,193.25 Z" fill="rgb(254,254,254)"/>
</g>
</svg>